<svg width="6903" height="2236" xmlns="http://www.w3.org/2000/svg">
  <g fill="#008dd2">
    <polygon points="433.81591796875,-3.1904072761535645 2034.81591796875,-3.1904072761535645 1955.81591796875,142.80961561203003 1741.81591796875,548.8095850944519 1551.81591796875,548.8095850944519 1775.81591796875,142.80961561203003 349.81591796875,142.80961561203003" />
    <polygon points="355.81591796875,179.80961561203003 1712.81591796875,179.80961561203003 1619.81591796875,360.8095850944519 656.81591796875,359.8095850944519 1129.81591796875,1172.809585094452 1014.81591796875,1329.809585094452 447.81591796875,360.8095850944519" />
    <polygon points="2086.81591796875,3.809598445892334 2181.81591796875,158.80961561203003 1976.81591796875,548.8095850944519 1787.81591796875,548.8095850944519 2010.81591796875,142.80961561203003" />
    <polygon points="909.81591796875,394.8095850944519 1254.81591796875,987.8095850944519 1142.81591796875,1149.809585094452 702.81591796875,396.8095850944519" />
    <polygon points="779.81591796875,2228.809585094452 24.81591796875,817.8095850944519 190.81593322753906,818.8095850944519 649.81591796875,815.8095850944519 738.81591796875,982.8095850944519 275.81591796875,977.8095850944519 948.81591796875,2234.809585094452" />
    <polygon points="978.81591796875,2211.809585094452 338.81591796875,1015.8095850944519 540.81591796875,1011.8095850944519 995.81591796875,1861.809585094452 1510.81591796875,1023.8095850944519 1718.81591796875,1027.809585094452 1093.81591796875,2045.809585094452" />
    <polygon points="6.815910816192627,768.8095850944519 98.81593322753906,611.8095850944519 538.81591796875,607.8095850944519 627.81591796875,775.8095850944519 164.81593322753906,769.8095850944519" />
    <polygon points="906.81591796875,1621.809585094452 1276.81591796875,1021.8095850944519 1486.81591796875,1021.8095850944519 1005.81591796875,1803.809585094452" />
    <polygon points="2555.81591796875,749.8095850944519 1747.81591796875,2130.809585094452 1661.81591796875,1988.809585094452 1418.81591796875,1599.809585094452 1514.81591796875,1435.809585094452 1752.81591796875,1833.809585094452 2472.81591796875,602.8095850944519" />
    <polygon points="2437.81591796875,589.8095850944519 1752.81591796875,1760.809585094452 1643.81591796875,1589.809585094452 2129.81591796875,757.8095850944519 1182.81591796875,755.8095850944519 1090.81591796875,593.8095850944519" />
    <polygon points="1714.81591796875,2172.809585094452 1533.81591796875,2175.809585094452 1299.81591796875,1802.809585094452 1396.81591796875,1638.809585094452 1633.81591796875,2036.809585094452" />
    <polygon points="1972.81591796875,959.8095850944519 1290.81591796875,957.8095850944519 1196.81591796875,779.8095850944519 2074.81591796875,779.8095850944519" />
    <polygon points="5784.8017578125,451.49945068359375 5468.8017578125,451.49945068359375 5149.8017578125,451.49945068359375 5149.8017578125,746.4993896484375 5149.8017578125,994.4993896484375 5149.8017578125,1280.5004272460938 5149.8017578125,1498.5005493164062 5149.8017578125,1784.5005493164062 5468.8017578125,1784.5005493164062 5781.8017578125,1784.5005493164062 5781.8017578125,1498.5005493164062 5468.8017578125,1498.5005493164062 5468.8017578125,1280.5004272460938 5760.8017578125,1280.5004272460938 5760.8017578125,994.4993896484375 5468.8017578125,994.4993896484375 5468.8017578125,746.4993896484375 5784.8017578125,746.4993896484375" />
    <polygon points="4057.802734375,1778.5005493164062 4385.8017578125,1778.5005493164062 4561.8017578125,886.4993896484375 4749.8017578125,1775.5005493164062 5059.8017578125,1775.5005493164062 4737.8017578125,457.49945068359375 4397.8017578125,457.49945068359375" />
    <polygon points="5942.8017578125,1777.5005493164062 6252.8017578125,1779.5005493164062 6251.8017578125,1154.4996948242188 6407.8017578125,1338.5005493164062 6601.8017578125,1141.4995727539062 6601.8017578125,1785.5005493164062 6902.8017578125,1785.5005493164062 6902.8017578125,450.49945068359375 6856.8017578125,450.49945068359375 6440.8017578125,945.4993896484375 6406.8017578125,945.4993896484375 5984.8017578125,450.49945068359375 5945.8017578125,450.49945068359375" />
    <path d="m3973.81577,735.99999l-270,0c-43,3 -64,20 -63,51l0,623c1,54 25,79 60,84l295,0l0,280l-343,3c-206,-24 -290,-153 -313,-337l0,-647c20,-177 96,-296 250,-334l385,0l-1,277z" />
  </g>
</svg>
