<svg width="1886" height="1886" xmlns="http://www.w3.org/2000/svg">
  <g fill="#008dd2">
    <path d="m316.02022,114.83459l1184.89079,0l-58.46744,108.05375l-158.38016,300.47824l-140.6179,0l165.7811,-300.47824l-1055.37431,0l62.16791,-108.05375l0.00001,0z" />
    <path d="m258.29287,250.27183l1004.30781,0l-68.82876,133.95705l-712.7107,-0.74009l350.06455,601.69657l-85.11083,116.19479l-419.6334,-717.15127l-68.08867,-133.95705zm1281.10303,-130.25658l70.30895,114.7146l-151.71931,288.63673l-139.8778,0l165.041,-300.47824l56.24716,-102.87309z" />
    <path d="m668.30505,409.39208l255.33249,438.87585l-82.89055,119.89526l-325.64144,-557.29092l153.1995,-1.48019zm-96.21224,1357.33274l-558.77111,-1044.27289l122.85563,0.74009l339.70323,-2.22028l65.86838,123.59573l-342.66361,-3.70047l498.08339,930.29839l-125.07592,-4.44057l0.00001,0z" />
    <path d="m719.37155,1754.14321l-473.66028,-885.15265l149.49903,-2.96038l336.74285,629.08006l381.14851,-620.19893l153.93959,2.96038l-462.55887,753.41588l-85.11083,122.85563l0,0.00001zm-719.37155,-1067.95591l68.08867,-116.19479l325.64144,-2.96038l65.86838,124.33582l-342.66361,-4.44057l-116.93488,-0.74009l0,0.00001z" />
    <path d="m666.08477,1317.48764l273.83485,-444.05651l155.41978,0l-355.9853,578.75365l-73.26932,-134.69714l-0.00001,0zm1220.41531,-645.36213l-597.9961,1022.07007l-63.6481,-105.09337l-179.84289,-287.89664l71.04904,-121.37545l176.14242,294.55749l532.86781,-911.05594l61.42782,108.79385l0,-0.00001z" />
    <path d="m1799.16896,553.71044l-506.96452,866.65029l-80.67027,-126.55611l359.68577,-615.75836l-700.86919,-1.48019l-68.08867,-119.89526l996.90687,-2.96038l0.00001,0.00001zm-535.0881,1171.56909l-133.95705,2.22028l-173.18204,-276.05513l71.78914,-121.37545l175.40232,294.55749l59.94763,100.65281z" />
    <path d="m1455.02517,827.54529l-504.74423,-1.48019l-69.56885,-131.73676l649.80269,0l-75.48961,133.21695z" />
  </g>
</svg>
